<?xml version="1.0" encoding="UTF-8" standalone="no"?>
<!DOCTYPE svg PUBLIC "-//W3C//DTD SVG 1.1//EN"
 "http://www.w3.org/Graphics/SVG/1.1/DTD/svg11.dtd">
<!-- Generated by graphviz version 2.38.0 (20140413.2041)
 -->
<!-- Title: %3 Pages: 1 -->
<svg width="2666pt" height="1037pt"
 viewBox="0.00 0.00 2665.96 1037.44" xmlns="http://www.w3.org/2000/svg" xmlns:xlink="http://www.w3.org/1999/xlink">
<g id="graph0" class="graph" transform="scale(1 1) rotate(0) translate(4 1033.44)">
<title>%3</title>
<polygon fill="white" stroke="none" points="-4,4 -4,-1033.44 2661.96,-1033.44 2661.96,4 -4,4"/>
<g id="clust1" class="cluster"><title>cluster&#45;nid&#45;02</title>
<polygon fill="none" stroke="#cccccc" points="807.938,-951.443 807.938,-1021.44 1266.89,-1021.44 1266.89,-951.443 807.938,-951.443"/>
</g>
<g id="clust2" class="cluster"><title>cluster&#45;nid&#45;03</title>
<polygon fill="none" stroke="#cccccc" points="807.938,-873.443 807.938,-943.443 1266.89,-943.443 1266.89,-873.443 807.938,-873.443"/>
</g>
<g id="clust5" class="cluster"><title>cluster&#45;nid&#45;06</title>
<polygon fill="none" stroke="#cccccc" points="8,-916.443 8,-986.443 154.108,-986.443 154.108,-916.443 8,-916.443"/>
</g>
<g id="clust7" class="cluster"><title>cluster&#45;nid&#45;08</title>
<polygon fill="none" stroke="#cccccc" points="1916.32,-405.443 1916.32,-475.443 2334.52,-475.443 2334.52,-405.443 1916.32,-405.443"/>
</g>
<g id="clust8" class="cluster"><title>cluster&#45;nid&#45;09</title>
<polygon fill="none" stroke="#cccccc" points="1916.32,-256.443 1916.32,-326.443 2334.52,-326.443 2334.52,-256.443 1916.32,-256.443"/>
</g>
<g id="clust10" class="cluster"><title>cluster&#45;nid&#45;0b</title>
<polygon fill="none" stroke="#cccccc" points="762.108,-401.443 762.108,-719.443 1281.53,-719.443 1281.53,-401.443 762.108,-401.443"/>
</g>
<g id="clust11" class="cluster"><title>cluster&#45;nid&#45;0c</title>
<polygon fill="none" stroke="#cccccc" points="1521.89,-736.443 1521.89,-862.443 2000.96,-862.443 2000.96,-736.443 1521.89,-736.443"/>
</g>
<g id="clust12" class="cluster"><title>cluster&#45;nid&#45;0d</title>
<polygon fill="none" stroke="#cccccc" points="1521.89,-602.443 1521.89,-728.443 2000.96,-728.443 2000.96,-602.443 1521.89,-602.443"/>
</g>
<g id="clust14" class="cluster"><title>cluster&#45;nid&#45;0f</title>
<polygon fill="none" stroke="#cccccc" points="1521.89,-881.443 1521.89,-1007.44 2000.14,-1007.44 2000.14,-881.443 1521.89,-881.443"/>
</g>
<g id="clust18" class="cluster"><title>cluster&#45;nid&#45;12&#45;out</title>
<polygon fill="none" stroke="#cccccc" points="1152.89,-39.4429 1152.89,-123.443 1310.89,-123.443 1310.89,-39.4429 1152.89,-39.4429"/>
</g>
<g id="clust20" class="cluster"><title>cluster&#45;nid&#45;13&#45;out</title>
<polygon fill="none" stroke="#cccccc" points="1141.89,-163.443 1141.89,-247.443 1321.89,-247.443 1321.89,-163.443 1141.89,-163.443"/>
</g>
<g id="clust21" class="cluster"><title>cluster&#45;nid&#45;14&#45;in</title>
<polygon fill="none" stroke="#cccccc" points="2200.96,-782.443 2200.96,-866.443 2379.96,-866.443 2379.96,-782.443 2200.96,-782.443"/>
</g>
<g id="clust23" class="cluster"><title>cluster&#45;nid&#45;15&#45;in</title>
<polygon fill="none" stroke="#cccccc" points="2203.96,-690.443 2203.96,-774.443 2376.96,-774.443 2376.96,-690.443 2203.96,-690.443"/>
</g>
<g id="clust25" class="cluster"><title>cluster&#45;nid&#45;16&#45;in</title>
<polygon fill="none" stroke="#cccccc" points="2201.96,-598.443 2201.96,-682.443 2378.96,-682.443 2378.96,-598.443 2201.96,-598.443"/>
</g>
<g id="clust28" class="cluster"><title>cluster&#45;nid&#45;18&#45;in</title>
<polygon fill="none" stroke="#cccccc" points="2201.96,-506.443 2201.96,-590.443 2649.96,-590.443 2649.96,-506.443 2201.96,-506.443"/>
</g>
<g id="clust29" class="cluster"><title>cluster&#45;nid&#45;18&#45;out</title>
<polygon fill="none" stroke="#cccccc" points="46.0538,-689.443 46.0538,-773.443 546.608,-773.443 546.608,-689.443 46.0538,-689.443"/>
</g>
<g id="clust31" class="cluster"><title>cluster&#45;nid&#45;19&#45;out</title>
<polygon fill="none" stroke="#cccccc" points="369.608,-171.443 369.608,-255.443 546.608,-255.443 546.608,-171.443 369.608,-171.443"/>
</g>
<g id="clust33" class="cluster"><title>cluster&#45;nid&#45;1a&#45;out</title>
<polygon fill="none" stroke="#cccccc" points="381.108,-355.443 381.108,-439.443 535.108,-439.443 535.108,-355.443 381.108,-355.443"/>
</g>
<g id="clust34" class="cluster"><title>cluster&#45;nid&#45;1b&#45;in</title>
<polygon fill="none" stroke="#cccccc" points="2201.96,-874.443 2201.96,-958.443 2649.96,-958.443 2649.96,-874.443 2201.96,-874.443"/>
</g>
<g id="clust35" class="cluster"><title>cluster&#45;nid&#45;1b&#45;out</title>
<polygon fill="none" stroke="#cccccc" points="46.0538,-263.443 46.0538,-347.443 546.608,-347.443 546.608,-263.443 46.0538,-263.443"/>
</g>
<g id="clust38" class="cluster"><title>cluster&#45;nid&#45;1d&#45;out</title>
<polygon fill="none" stroke="#cccccc" points="354.108,-781.443 354.108,-865.443 562.108,-865.443 562.108,-781.443 354.108,-781.443"/>
</g>
<g id="clust39" class="cluster"><title>cluster&#45;nid&#45;1e&#45;in</title>
<polygon fill="none" stroke="#cccccc" points="369.608,-909.443 369.608,-993.443 546.608,-993.443 546.608,-909.443 369.608,-909.443"/>
</g>
<g id="clust44" class="cluster"><title>cluster&#45;nid&#45;22</title>
<polygon fill="none" stroke="#cccccc" points="1550.91,-245.443 1550.91,-337.443 1672.66,-337.443 1672.66,-245.443 1550.91,-245.443"/>
</g>
<g id="clust45" class="cluster"><title>cluster&#45;nid&#45;23</title>
<polygon fill="none" stroke="#cccccc" points="1550.91,-394.443 1550.91,-486.443 1672.66,-486.443 1672.66,-394.443 1550.91,-394.443"/>
</g>
<!-- nid&#45;02 -->
<g id="node1" class="node"><title>nid&#45;02</title>
<ellipse fill="none" stroke="blue" cx="852" cy="-986.443" rx="36.125" ry="26.7407"/>
<text text-anchor="middle" x="852" y="-990.243" font-family="Times,serif" font-size="14.00">2</text>
<text text-anchor="middle" x="852" y="-975.243" font-family="Times,serif" font-size="14.00">Stereo</text>
</g>
<!-- nid&#45;02&#45;ampout -->
<g id="node2" class="node"><title>nid&#45;02&#45;ampout</title>
<polygon fill="none" stroke="#0000ff" points="1258.89,-981.443 1218.39,-999.443 1218.39,-963.443 1258.89,-981.443"/>
</g>
<!-- nid&#45;02&#45;&gt;nid&#45;02&#45;ampout -->
<g id="edge1" class="edge"><title>nid&#45;02&#45;&gt;nid&#45;02&#45;ampout</title>
<path fill="none" stroke="#0000ff" d="M888.212,-985.977C966.845,-984.937 1154.42,-982.455 1213.06,-981.679"/>
<polygon fill="#0000ff" stroke="#0000ff" points="1213.35,-983.425 1218.32,-981.609 1213.3,-979.926 1213.35,-983.425"/>
</g>
<!-- nid&#45;0c&#45;ampin&#45;2 -->
<g id="node24" class="node"><title>nid&#45;0c&#45;ampin&#45;2</title>
<polygon fill="none" stroke="#0000ff" points="1693.57,-831.443 1570.89,-854.443 1570.89,-808.443 1693.57,-831.443"/>
<text text-anchor="middle" x="1611.79" y="-827.743" font-family="Times,serif" font-size="14.00">0 (2)</text>
</g>
<!-- nid&#45;02&#45;ampout&#45;&gt;nid&#45;0c&#45;ampin&#45;2 -->
<g id="edge19" class="edge"><title>nid&#45;02&#45;ampout&#45;&gt;nid&#45;0c&#45;ampin&#45;2</title>
<path fill="none" stroke="#333333" d="M1247.1,-976.099C1264.69,-969.464 1295.56,-957.76 1321.89,-947.443 1406.09,-914.457 1503.64,-875.037 1561.12,-851.684"/>
<polygon fill="#333333" stroke="#333333" points="1562.73,-854.805 1570.68,-847.796 1560.1,-848.32 1562.73,-854.805"/>
</g>
<!-- nid&#45;0f&#45;ampin&#45;2 -->
<g id="node30" class="node"><title>nid&#45;0f&#45;ampin&#45;2</title>
<polygon fill="none" stroke="#c8c8c8" points="1693.57,-976.443 1570.89,-999.443 1570.89,-953.443 1693.57,-976.443"/>
<text text-anchor="middle" x="1611.79" y="-972.743" font-family="Times,serif" font-size="14.00">0 (2)</text>
</g>
<!-- nid&#45;02&#45;ampout&#45;&gt;nid&#45;0f&#45;ampin&#45;2 -->
<g id="edge27" class="edge"><title>nid&#45;02&#45;ampout&#45;&gt;nid&#45;0f&#45;ampin&#45;2</title>
<path fill="none" stroke="#333333" d="M1258.27,-981.107C1320.01,-980.29 1478.92,-978.188 1560.63,-977.107"/>
<polygon fill="#333333" stroke="#333333" points="1560.72,-980.606 1570.67,-976.974 1560.63,-973.606 1560.72,-980.606"/>
</g>
<!-- nid&#45;03 -->
<g id="node3" class="node"><title>nid&#45;03</title>
<ellipse fill="none" stroke="blue" cx="852" cy="-908.443" rx="36.125" ry="26.7407"/>
<text text-anchor="middle" x="852" y="-912.243" font-family="Times,serif" font-size="14.00">3</text>
<text text-anchor="middle" x="852" y="-897.243" font-family="Times,serif" font-size="14.00">Stereo</text>
</g>
<!-- nid&#45;03&#45;ampout -->
<g id="node4" class="node"><title>nid&#45;03&#45;ampout</title>
<polygon fill="none" stroke="#0000ff" points="1258.89,-908.443 1218.39,-926.443 1218.39,-890.443 1258.89,-908.443"/>
</g>
<!-- nid&#45;03&#45;&gt;nid&#45;03&#45;ampout -->
<g id="edge2" class="edge"><title>nid&#45;03&#45;&gt;nid&#45;03&#45;ampout</title>
<path fill="none" stroke="#0000ff" d="M888.212,-908.443C966.845,-908.443 1154.42,-908.443 1213.06,-908.443"/>
<polygon fill="#0000ff" stroke="#0000ff" points="1213.32,-910.193 1218.32,-908.443 1213.32,-906.693 1213.32,-910.193"/>
</g>
<!-- nid&#45;0d&#45;ampin&#45;3 -->
<g id="node27" class="node"><title>nid&#45;0d&#45;ampin&#45;3</title>
<polygon fill="none" stroke="#0000ff" points="1693.57,-697.443 1570.89,-720.443 1570.89,-674.443 1693.57,-697.443"/>
<text text-anchor="middle" x="1611.79" y="-693.743" font-family="Times,serif" font-size="14.00">0 (3)</text>
</g>
<!-- nid&#45;03&#45;ampout&#45;&gt;nid&#45;0d&#45;ampin&#45;3 -->
<g id="edge23" class="edge"><title>nid&#45;03&#45;ampout&#45;&gt;nid&#45;0d&#45;ampin&#45;3</title>
<path fill="none" stroke="#333333" d="M1246.81,-902.861C1264.62,-895.529 1296.25,-881.88 1321.89,-867.443 1415.35,-814.834 1426.99,-782.386 1521.89,-732.443 1534.17,-725.98 1547.92,-720.003 1560.87,-714.885"/>
<polygon fill="#333333" stroke="#333333" points="1562.5,-718.006 1570.57,-711.144 1559.98,-711.474 1562.5,-718.006"/>
</g>
<!-- nid&#45;0f&#45;ampin&#45;3 -->
<g id="node31" class="node"><title>nid&#45;0f&#45;ampin&#45;3</title>
<polygon fill="none" stroke="#0000ff" points="1693.57,-912.443 1570.89,-935.443 1570.89,-889.443 1693.57,-912.443"/>
<text text-anchor="middle" x="1611.79" y="-908.743" font-family="Times,serif" font-size="14.00">1 (3)</text>
</g>
<!-- nid&#45;03&#45;ampout&#45;&gt;nid&#45;0f&#45;ampin&#45;3 -->
<g id="edge28" class="edge"><title>nid&#45;03&#45;ampout&#45;&gt;nid&#45;0f&#45;ampin&#45;3</title>
<path fill="none" stroke="#333333" d="M1258.57,-908.715C1320.54,-909.371 1479.19,-911.05 1560.73,-911.913"/>
<polygon fill="#333333" stroke="#333333" points="1560.72,-915.413 1570.76,-912.019 1560.8,-908.413 1560.72,-915.413"/>
</g>
<!-- nid&#45;06 -->
<g id="node5" class="node"><title>nid&#45;06</title>
<ellipse fill="none" stroke="blue" cx="81.0538" cy="-951.443" rx="65.1077" ry="26.7407"/>
<text text-anchor="middle" x="81.0538" y="-955.243" font-family="Times,serif" font-size="14.00">6</text>
<text text-anchor="middle" x="81.0538" y="-940.243" font-family="Times,serif" font-size="14.00">Stereo Digital</text>
</g>
<!-- nid&#45;1e&#45;in -->
<g id="node43" class="node"><title>nid&#45;1e&#45;in</title>
<polygon fill="none" stroke="green" points="538.608,-985.443 377.608,-985.443 377.608,-917.443 538.608,-917.443 538.608,-985.443"/>
<text text-anchor="middle" x="458.108" y="-970.243" font-family="Times,serif" font-size="14.00">30</text>
<text text-anchor="middle" x="458.108" y="-955.243" font-family="Times,serif" font-size="14.00">[N/A] Speaker at Ext Rear</text>
<text text-anchor="middle" x="458.108" y="-940.243" font-family="Times,serif" font-size="14.00">Stereo Digital</text>
<text text-anchor="middle" x="458.108" y="-925.243" font-family="Times,serif" font-size="14.00">OUT Detect</text>
</g>
<!-- nid&#45;06&#45;&gt;nid&#45;1e&#45;in -->
<g id="edge43" class="edge"><title>nid&#45;06&#45;&gt;nid&#45;1e&#45;in</title>
<path fill="none" stroke="#333333" d="M146.528,-951.443C207.388,-951.443 299.206,-951.443 367.239,-951.443"/>
<polygon fill="#333333" stroke="#333333" points="367.521,-954.943 377.521,-951.443 367.521,-947.943 367.521,-954.943"/>
</g>
<!-- nid&#45;08 -->
<g id="node6" class="node"><title>nid&#45;08</title>
<ellipse fill="none" stroke="red" cx="2290.46" cy="-440.443" rx="36.125" ry="26.7407"/>
<text text-anchor="middle" x="2290.46" y="-444.243" font-family="Times,serif" font-size="14.00">8</text>
<text text-anchor="middle" x="2290.46" y="-429.243" font-family="Times,serif" font-size="14.00">Stereo</text>
</g>
<!-- nid&#45;08&#45;ampin -->
<g id="node7" class="node"><title>nid&#45;08&#45;ampin</title>
<polygon fill="none" stroke="#c8c8c8" points="1978.32,-440.443 1937.82,-458.443 1937.82,-422.443 1978.32,-440.443"/>
</g>
<!-- nid&#45;08&#45;ampin&#45;&gt;nid&#45;08 -->
<g id="edge3" class="edge"><title>nid&#45;08&#45;ampin&#45;&gt;nid&#45;08</title>
<path fill="none" stroke="#c8c8c8" d="M1978.49,-440.443C2037,-440.443 2178.71,-440.443 2248.81,-440.443"/>
<polygon fill="#c8c8c8" stroke="#c8c8c8" points="2249.14,-442.193 2254.14,-440.443 2249.14,-438.693 2249.14,-442.193"/>
</g>
<!-- nid&#45;23 -->
<g id="node8" class="node"><title>nid&#45;23</title>
<polygon fill="none" stroke="black" points="1664.53,-478.443 1580.62,-478.443 1559.04,-402.443 1642.95,-402.443 1664.53,-478.443"/>
<text text-anchor="middle" x="1611.79" y="-444.243" font-family="Times,serif" font-size="14.00">35</text>
<text text-anchor="middle" x="1611.79" y="-429.243" font-family="Times,serif" font-size="14.00">Stereo</text>
</g>
<!-- nid&#45;23&#45;&gt;nid&#45;08&#45;ampin -->
<g id="edge4" class="edge"><title>nid&#45;23&#45;&gt;nid&#45;08&#45;ampin</title>
<path fill="none" stroke="#333333" d="M1653.84,-440.443C1725.5,-440.443 1871.15,-440.443 1927.42,-440.443"/>
<polygon fill="#333333" stroke="#333333" points="1927.72,-443.943 1937.72,-440.443 1927.72,-436.943 1927.72,-443.943"/>
</g>
<!-- nid&#45;09 -->
<g id="node9" class="node"><title>nid&#45;09</title>
<ellipse fill="none" stroke="red" cx="2290.46" cy="-291.443" rx="36.125" ry="26.7407"/>
<text text-anchor="middle" x="2290.46" y="-295.243" font-family="Times,serif" font-size="14.00">9</text>
<text text-anchor="middle" x="2290.46" y="-280.243" font-family="Times,serif" font-size="14.00">Stereo</text>
</g>
<!-- nid&#45;09&#45;ampin -->
<g id="node10" class="node"><title>nid&#45;09&#45;ampin</title>
<polygon fill="none" stroke="#5c5ce5" points="1978.32,-291.443 1937.82,-309.443 1937.82,-273.443 1978.32,-291.443"/>
</g>
<!-- nid&#45;09&#45;ampin&#45;&gt;nid&#45;09 -->
<g id="edge5" class="edge"><title>nid&#45;09&#45;ampin&#45;&gt;nid&#45;09</title>
<path fill="none" stroke="#5c5ce5" d="M1978.49,-291.443C2037,-291.443 2178.71,-291.443 2248.81,-291.443"/>
<polygon fill="#5c5ce5" stroke="#5c5ce5" points="2249.14,-293.193 2254.14,-291.443 2249.14,-289.693 2249.14,-293.193"/>
</g>
<!-- nid&#45;22 -->
<g id="node11" class="node"><title>nid&#45;22</title>
<polygon fill="none" stroke="black" points="1664.53,-329.443 1580.62,-329.443 1559.04,-253.443 1642.95,-253.443 1664.53,-329.443"/>
<text text-anchor="middle" x="1611.79" y="-295.243" font-family="Times,serif" font-size="14.00">34</text>
<text text-anchor="middle" x="1611.79" y="-280.243" font-family="Times,serif" font-size="14.00">Stereo</text>
</g>
<!-- nid&#45;22&#45;&gt;nid&#45;09&#45;ampin -->
<g id="edge6" class="edge"><title>nid&#45;22&#45;&gt;nid&#45;09&#45;ampin</title>
<path fill="none" stroke="#333333" d="M1653.84,-291.443C1725.5,-291.443 1871.15,-291.443 1927.42,-291.443"/>
<polygon fill="#333333" stroke="#333333" points="1927.72,-294.943 1937.72,-291.443 1927.72,-287.943 1927.72,-294.943"/>
</g>
<!-- nid&#45;0b -->
<g id="node12" class="node"><title>nid&#45;0b</title>
<polygon fill="none" stroke="black" points="1273.68,-560.443 1252.78,-591.497 1211,-591.497 1190.11,-560.443 1211,-529.389 1252.78,-529.389 1273.68,-560.443"/>
<text text-anchor="middle" x="1231.89" y="-564.243" font-family="Times,serif" font-size="14.00">11</text>
<text text-anchor="middle" x="1231.89" y="-549.243" font-family="Times,serif" font-size="14.00">Stereo</text>
</g>
<!-- nid&#45;0b&#45;&gt;nid&#45;23 -->
<g id="edge57" class="edge"><title>nid&#45;0b&#45;&gt;nid&#45;23</title>
<path fill="none" stroke="gray" stroke-dasharray="5,2" d="M1266.76,-549.688C1334.2,-528.271 1485.46,-480.241 1562.98,-455.623"/>
<polygon fill="gray" stroke="gray" points="1564.49,-458.816 1572.96,-452.454 1562.37,-452.144 1564.49,-458.816"/>
</g>
<!-- nid&#45;0b&#45;&gt;nid&#45;22 -->
<g id="edge49" class="edge"><title>nid&#45;0b&#45;&gt;nid&#45;22</title>
<path fill="none" stroke="gray" stroke-dasharray="5,2" d="M1260.68,-540.663C1326.13,-494.07 1490.35,-377.176 1568.36,-321.644"/>
<polygon fill="gray" stroke="gray" points="1570.42,-324.475 1576.53,-315.825 1566.36,-318.773 1570.42,-324.475"/>
</g>
<!-- nid&#45;0c&#45;ampin&#45;11 -->
<g id="node25" class="node"><title>nid&#45;0c&#45;ampin&#45;11</title>
<polygon fill="none" stroke="#0000ff" points="1693.57,-767.443 1570.89,-790.443 1570.89,-744.443 1693.57,-767.443"/>
<text text-anchor="middle" x="1611.79" y="-763.743" font-family="Times,serif" font-size="14.00">1 (11)</text>
</g>
<!-- nid&#45;0b&#45;&gt;nid&#45;0c&#45;ampin&#45;11 -->
<g id="edge20" class="edge"><title>nid&#45;0b&#45;&gt;nid&#45;0c&#45;ampin&#45;11</title>
<path fill="none" stroke="#333333" d="M1261.16,-579.369C1311.93,-612.884 1422.55,-683.723 1521.89,-732.443 1534.35,-738.554 1548.16,-744.409 1561.11,-749.523"/>
<polygon fill="#333333" stroke="#333333" points="1560.22,-752.931 1570.81,-753.281 1562.75,-746.404 1560.22,-752.931"/>
</g>
<!-- nid&#45;0d&#45;ampin&#45;11 -->
<g id="node28" class="node"><title>nid&#45;0d&#45;ampin&#45;11</title>
<polygon fill="none" stroke="#0000ff" points="1693.57,-633.443 1570.89,-656.443 1570.89,-610.443 1693.57,-633.443"/>
<text text-anchor="middle" x="1611.79" y="-629.743" font-family="Times,serif" font-size="14.00">1 (11)</text>
</g>
<!-- nid&#45;0b&#45;&gt;nid&#45;0d&#45;ampin&#45;11 -->
<g id="edge24" class="edge"><title>nid&#45;0b&#45;&gt;nid&#45;0d&#45;ampin&#45;11</title>
<path fill="none" stroke="#333333" d="M1269.13,-567.442C1337.02,-580.557 1483.47,-608.848 1560.73,-623.773"/>
<polygon fill="#333333" stroke="#333333" points="1560.22,-627.239 1570.7,-625.7 1561.55,-620.366 1560.22,-627.239"/>
</g>
<!-- nid&#45;0b&#45;ampin&#45;24 -->
<g id="node13" class="node"><title>nid&#45;0b&#45;ampin&#45;24</title>
<polygon fill="none" stroke="#c8c8c8" points="933.786,-624.443 811.108,-647.443 811.108,-601.443 933.786,-624.443"/>
<text text-anchor="middle" x="852" y="-620.743" font-family="Times,serif" font-size="14.00">0 (24)</text>
</g>
<!-- nid&#45;0b&#45;ampin&#45;24&#45;&gt;nid&#45;0b -->
<g id="edge7" class="edge"><title>nid&#45;0b&#45;ampin&#45;24&#45;&gt;nid&#45;0b</title>
<path fill="none" stroke="#c8c8c8" d="M895.615,-617.226C968.565,-604.871 1116.5,-579.817 1188.97,-567.543"/>
<polygon fill="#c8c8c8" stroke="#c8c8c8" points="1189.42,-569.242 1194.06,-566.682 1188.83,-565.791 1189.42,-569.242"/>
</g>
<!-- nid&#45;0b&#45;ampin&#45;25 -->
<g id="node14" class="node"><title>nid&#45;0b&#45;ampin&#45;25</title>
<polygon fill="none" stroke="#c8c8c8" points="933.786,-432.443 811.108,-455.443 811.108,-409.443 933.786,-432.443"/>
<text text-anchor="middle" x="852" y="-428.743" font-family="Times,serif" font-size="14.00">1 (25)</text>
</g>
<!-- nid&#45;0b&#45;ampin&#45;25&#45;&gt;nid&#45;0b -->
<g id="edge8" class="edge"><title>nid&#45;0b&#45;ampin&#45;25&#45;&gt;nid&#45;0b</title>
<path fill="none" stroke="#c8c8c8" d="M882.026,-442.274C949.503,-465.13 1116.93,-521.842 1192.64,-547.485"/>
<polygon fill="#c8c8c8" stroke="#c8c8c8" points="1192.19,-549.182 1197.49,-549.129 1193.32,-545.867 1192.19,-549.182"/>
</g>
<!-- nid&#45;0b&#45;ampin&#45;26 -->
<g id="node15" class="node"><title>nid&#45;0b&#45;ampin&#45;26</title>
<polygon fill="none" stroke="#c8c8c8" points="932.686,-560.443 811.657,-583.443 811.657,-537.443 932.686,-560.443"/>
<text text-anchor="middle" x="852" y="-556.743" font-family="Times,serif" font-size="14.00">2 (26)</text>
</g>
<!-- nid&#45;0b&#45;ampin&#45;26&#45;&gt;nid&#45;0b -->
<g id="edge9" class="edge"><title>nid&#45;0b&#45;ampin&#45;26&#45;&gt;nid&#45;0b</title>
<path fill="none" stroke="#c8c8c8" d="M932.68,-560.443C1009.24,-560.443 1122.27,-560.443 1184.89,-560.443"/>
<polygon fill="#c8c8c8" stroke="#c8c8c8" points="1185.05,-562.193 1190.05,-560.443 1185.05,-558.693 1185.05,-562.193"/>
</g>
<!-- nid&#45;0b&#45;ampin&#45;27 -->
<g id="node16" class="node"><title>nid&#45;0b&#45;ampin&#45;27</title>
<polygon fill="none" stroke="#c8c8c8" points="933.786,-496.443 811.108,-519.443 811.108,-473.443 933.786,-496.443"/>
<text text-anchor="middle" x="852" y="-492.743" font-family="Times,serif" font-size="14.00">3 (27)</text>
</g>
<!-- nid&#45;0b&#45;ampin&#45;27&#45;&gt;nid&#45;0b -->
<g id="edge10" class="edge"><title>nid&#45;0b&#45;ampin&#45;27&#45;&gt;nid&#45;0b</title>
<path fill="none" stroke="#c8c8c8" d="M895.615,-503.66C968.565,-516.015 1116.5,-541.069 1188.97,-553.343"/>
<polygon fill="#c8c8c8" stroke="#c8c8c8" points="1188.83,-555.095 1194.06,-554.204 1189.42,-551.644 1188.83,-555.095"/>
</g>
<!-- nid&#45;0b&#45;ampin&#45;29 -->
<g id="node17" class="node"><title>nid&#45;0b&#45;ampin&#45;29</title>
<polygon fill="none" stroke="#c8c8c8" points="933.786,-688.443 811.108,-711.443 811.108,-665.443 933.786,-688.443"/>
<text text-anchor="middle" x="852" y="-684.743" font-family="Times,serif" font-size="14.00">4 (29)</text>
</g>
<!-- nid&#45;0b&#45;ampin&#45;29&#45;&gt;nid&#45;0b -->
<g id="edge11" class="edge"><title>nid&#45;0b&#45;ampin&#45;29&#45;&gt;nid&#45;0b</title>
<path fill="none" stroke="#c8c8c8" d="M882.026,-678.611C949.503,-655.756 1116.93,-599.044 1192.64,-573.4"/>
<polygon fill="#c8c8c8" stroke="#c8c8c8" points="1193.32,-575.019 1197.49,-571.757 1192.19,-571.704 1193.32,-575.019"/>
</g>
<!-- nid&#45;18&#45;out -->
<g id="node18" class="node"><title>nid&#45;18&#45;out</title>
<polygon fill="none" stroke="green" points="538.608,-765.443 377.608,-765.443 377.608,-697.443 538.608,-697.443 538.608,-765.443"/>
<text text-anchor="middle" x="458.108" y="-750.243" font-family="Times,serif" font-size="14.00">24</text>
<text text-anchor="middle" x="458.108" y="-735.243" font-family="Times,serif" font-size="14.00">[N/A] Speaker at Ext Rear</text>
<text text-anchor="middle" x="458.108" y="-720.243" font-family="Times,serif" font-size="14.00">Stereo</text>
<text text-anchor="middle" x="458.108" y="-705.243" font-family="Times,serif" font-size="14.00">IN OUT Detect</text>
</g>
<!-- nid&#45;18&#45;out&#45;&gt;nid&#45;23 -->
<g id="edge52" class="edge"><title>nid&#45;18&#45;out&#45;&gt;nid&#45;23</title>
<path fill="none" stroke="#333333" d="M538.646,-754.962C696.049,-797.002 1055.1,-870.261 1321.89,-753.443 1446.62,-698.83 1541.37,-560.861 1584.75,-487.692"/>
<polygon fill="#333333" stroke="#333333" points="1588,-489.069 1590.03,-478.671 1581.96,-485.532 1588,-489.069"/>
</g>
<!-- nid&#45;18&#45;out&#45;&gt;nid&#45;22 -->
<g id="edge44" class="edge"><title>nid&#45;18&#45;out&#45;&gt;nid&#45;22</title>
<path fill="none" stroke="gray" stroke-dasharray="5,2" d="M538.786,-735.093C739.574,-743.674 1255.09,-761.655 1321.89,-723.443 1471.75,-637.72 1419.31,-529.303 1521.89,-390.443 1536.89,-370.142 1555.28,-349.135 1571.43,-331.724"/>
<polygon fill="gray" stroke="gray" points="1574.39,-333.683 1578.68,-323.993 1569.29,-328.897 1574.39,-333.683"/>
</g>
<!-- nid&#45;18&#45;out&#45;&gt;nid&#45;0b&#45;ampin&#45;24 -->
<g id="edge12" class="edge"><title>nid&#45;18&#45;out&#45;&gt;nid&#45;0b&#45;ampin&#45;24</title>
<path fill="none" stroke="#333333" d="M538.885,-709.661C617.434,-688.214 734.962,-656.125 801.115,-638.063"/>
<polygon fill="#333333" stroke="#333333" points="802.16,-641.406 810.885,-635.396 800.316,-634.653 802.16,-641.406"/>
</g>
<!-- nid&#45;19&#45;out -->
<g id="node19" class="node"><title>nid&#45;19&#45;out</title>
<polygon fill="none" stroke="green" points="538.608,-247.443 377.608,-247.443 377.608,-179.443 538.608,-179.443 538.608,-247.443"/>
<text text-anchor="middle" x="458.108" y="-232.243" font-family="Times,serif" font-size="14.00">25</text>
<text text-anchor="middle" x="458.108" y="-217.243" font-family="Times,serif" font-size="14.00">[N/A] Speaker at Ext Rear</text>
<text text-anchor="middle" x="458.108" y="-202.243" font-family="Times,serif" font-size="14.00">Stereo</text>
<text text-anchor="middle" x="458.108" y="-187.243" font-family="Times,serif" font-size="14.00">IN Detect</text>
</g>
<!-- nid&#45;19&#45;out&#45;&gt;nid&#45;23 -->
<g id="edge53" class="edge"><title>nid&#45;19&#45;out&#45;&gt;nid&#45;23</title>
<path fill="none" stroke="gray" stroke-dasharray="5,2" d="M538.736,-224.253C691.525,-245.602 1036.04,-296.684 1321.89,-360.443 1404.24,-378.81 1498.15,-405.998 1555.95,-423.468"/>
<polygon fill="gray" stroke="gray" points="1555.03,-426.845 1565.61,-426.399 1557.06,-420.147 1555.03,-426.845"/>
</g>
<!-- nid&#45;19&#45;out&#45;&gt;nid&#45;22 -->
<g id="edge45" class="edge"><title>nid&#45;19&#45;out&#45;&gt;nid&#45;22</title>
<path fill="none" stroke="gray" stroke-dasharray="5,2" d="M517.672,-179.411C659.633,-101.558 1031.78,74.6033 1321.89,-35.4429 1432.83,-77.523 1528.5,-183.847 1576.96,-245.424"/>
<polygon fill="gray" stroke="gray" points="1574.29,-247.697 1583.2,-253.438 1579.81,-243.397 1574.29,-247.697"/>
</g>
<!-- nid&#45;19&#45;out&#45;&gt;nid&#45;0b&#45;ampin&#45;25 -->
<g id="edge13" class="edge"><title>nid&#45;19&#45;out&#45;&gt;nid&#45;0b&#45;ampin&#45;25</title>
<path fill="none" stroke="#333333" d="M538.022,-247.519C546.221,-251.406 554.377,-255.42 562.108,-259.443 652.437,-306.446 753.587,-369.576 809.016,-405.128"/>
<polygon fill="#333333" stroke="#333333" points="807.206,-408.126 817.51,-410.591 810.992,-402.238 807.206,-408.126"/>
</g>
<!-- nid&#45;1a&#45;out -->
<g id="node20" class="node"><title>nid&#45;1a&#45;out</title>
<polygon fill="none" stroke="green" points="527.108,-431.443 389.108,-431.443 389.108,-363.443 527.108,-363.443 527.108,-431.443"/>
<text text-anchor="middle" x="458.108" y="-416.243" font-family="Times,serif" font-size="14.00">26</text>
<text text-anchor="middle" x="458.108" y="-401.243" font-family="Times,serif" font-size="14.00">[Jack] Mic at Ext Left</text>
<text text-anchor="middle" x="458.108" y="-386.243" font-family="Times,serif" font-size="14.00">Stereo</text>
<text text-anchor="middle" x="458.108" y="-371.243" font-family="Times,serif" font-size="14.00">IN Detect</text>
</g>
<!-- nid&#45;1a&#45;out&#45;&gt;nid&#45;23 -->
<g id="edge54" class="edge"><title>nid&#45;1a&#45;out&#45;&gt;nid&#45;23</title>
<path fill="none" stroke="gray" stroke-dasharray="5,2" d="M527.183,-394.035C673.09,-387.478 1026.68,-375.593 1321.89,-397.443 1404.42,-403.551 1499.14,-419.347 1556.96,-429.996"/>
<polygon fill="gray" stroke="gray" points="1556.49,-433.47 1566.96,-431.856 1557.77,-426.587 1556.49,-433.47"/>
</g>
<!-- nid&#45;1a&#45;out&#45;&gt;nid&#45;22 -->
<g id="edge46" class="edge"><title>nid&#45;1a&#45;out&#45;&gt;nid&#45;22</title>
<path fill="none" stroke="gray" stroke-dasharray="5,2" d="M527.275,-391.169C738.09,-371.765 1376.36,-313.019 1560.53,-296.068"/>
<polygon fill="gray" stroke="gray" points="1561.1,-299.531 1570.74,-295.129 1560.46,-292.56 1561.1,-299.531"/>
</g>
<!-- nid&#45;1a&#45;out&#45;&gt;nid&#45;0b&#45;ampin&#45;26 -->
<g id="edge14" class="edge"><title>nid&#45;1a&#45;out&#45;&gt;nid&#45;0b&#45;ampin&#45;26</title>
<path fill="none" stroke="#333333" d="M527.192,-428.329C588.27,-455.688 680.575,-496.179 762.108,-528.443 774.869,-533.493 788.784,-538.66 801.736,-543.329"/>
<polygon fill="#333333" stroke="#333333" points="800.823,-546.719 811.418,-546.791 803.181,-540.128 800.823,-546.719"/>
</g>
<!-- nid&#45;1b&#45;out -->
<g id="node21" class="node"><title>nid&#45;1b&#45;out</title>
<polygon fill="none" stroke="green" points="538.608,-339.443 377.608,-339.443 377.608,-271.443 538.608,-271.443 538.608,-339.443"/>
<text text-anchor="middle" x="458.108" y="-324.243" font-family="Times,serif" font-size="14.00">27</text>
<text text-anchor="middle" x="458.108" y="-309.243" font-family="Times,serif" font-size="14.00">[N/A] Speaker at Ext Rear</text>
<text text-anchor="middle" x="458.108" y="-294.243" font-family="Times,serif" font-size="14.00">Stereo</text>
<text text-anchor="middle" x="458.108" y="-279.243" font-family="Times,serif" font-size="14.00">IN OUT Detect</text>
</g>
<!-- nid&#45;1b&#45;out&#45;&gt;nid&#45;23 -->
<g id="edge55" class="edge"><title>nid&#45;1b&#45;out&#45;&gt;nid&#45;23</title>
<path fill="none" stroke="gray" stroke-dasharray="5,2" d="M538.804,-310.274C691.352,-320.087 1034.97,-344.923 1321.89,-385.443 1404.4,-397.094 1499.12,-416.243 1556.95,-428.594"/>
<polygon fill="gray" stroke="gray" points="1556.44,-432.065 1566.95,-430.742 1557.91,-425.221 1556.44,-432.065"/>
</g>
<!-- nid&#45;1b&#45;out&#45;&gt;nid&#45;22 -->
<g id="edge47" class="edge"><title>nid&#45;1b&#45;out&#45;&gt;nid&#45;22</title>
<path fill="none" stroke="gray" stroke-dasharray="5,2" d="M538.687,-271.706C691.391,-211.44 1035.77,-97.1714 1321.89,-159.443 1406.28,-177.809 1495.55,-223.11 1552.13,-255.514"/>
<polygon fill="gray" stroke="gray" points="1550.52,-258.624 1560.93,-260.598 1554.02,-252.563 1550.52,-258.624"/>
</g>
<!-- nid&#45;1b&#45;out&#45;&gt;nid&#45;0b&#45;ampin&#45;27 -->
<g id="edge15" class="edge"><title>nid&#45;1b&#45;out&#45;&gt;nid&#45;0b&#45;ampin&#45;27</title>
<path fill="none" stroke="#333333" d="M537.365,-339.46C545.77,-343.39 554.152,-347.43 562.108,-351.443 653.264,-397.421 669.303,-421.89 762.108,-464.443 774.583,-470.163 788.399,-475.562 801.348,-480.24"/>
<polygon fill="#333333" stroke="#333333" points="800.449,-483.634 811.043,-483.669 802.783,-477.035 800.449,-483.634"/>
</g>
<!-- nid&#45;1d&#45;out -->
<g id="node22" class="node"><title>nid&#45;1d&#45;out</title>
<polygon fill="none" stroke="green" points="554.108,-857.443 362.108,-857.443 362.108,-789.443 554.108,-789.443 554.108,-857.443"/>
<text text-anchor="middle" x="458.108" y="-842.243" font-family="Times,serif" font-size="14.00">29</text>
<text text-anchor="middle" x="458.108" y="-827.243" font-family="Times,serif" font-size="14.00">[N/A] Modem Hand at Ext N/A</text>
<text text-anchor="middle" x="458.108" y="-812.243" font-family="Times,serif" font-size="14.00">Mono</text>
<text text-anchor="middle" x="458.108" y="-797.243" font-family="Times,serif" font-size="14.00">IN</text>
</g>
<!-- nid&#45;1d&#45;out&#45;&gt;nid&#45;23 -->
<g id="edge56" class="edge"><title>nid&#45;1d&#45;out&#45;&gt;nid&#45;23</title>
<path fill="none" stroke="gray" stroke-dasharray="5,2" d="M554.463,-834.816C750.213,-856.448 1190.08,-895.739 1321.89,-829.443 1395.79,-792.277 1526.63,-582.658 1583.32,-487.471"/>
<polygon fill="gray" stroke="gray" points="1586.48,-489.012 1588.57,-478.626 1580.46,-485.438 1586.48,-489.012"/>
</g>
<!-- nid&#45;1d&#45;out&#45;&gt;nid&#45;22 -->
<g id="edge48" class="edge"><title>nid&#45;1d&#45;out&#45;&gt;nid&#45;22</title>
<path fill="none" stroke="gray" stroke-dasharray="5,2" d="M554.147,-826.114C751.392,-829.929 1197.22,-829.066 1321.89,-748.443 1474.94,-649.475 1415.91,-538.718 1521.89,-390.443 1536.82,-369.56 1555.54,-348.152 1571.94,-330.611"/>
<polygon fill="gray" stroke="gray" points="1574.49,-333.014 1578.81,-323.342 1569.4,-328.205 1574.49,-333.014"/>
</g>
<!-- nid&#45;1d&#45;out&#45;&gt;nid&#45;0b&#45;ampin&#45;29 -->
<g id="edge16" class="edge"><title>nid&#45;1d&#45;out&#45;&gt;nid&#45;0b&#45;ampin&#45;29</title>
<path fill="none" stroke="#333333" d="M554.224,-790.677C632.069,-763.861 739.098,-726.991 801.076,-705.641"/>
<polygon fill="#333333" stroke="#333333" points="802.31,-708.918 810.625,-702.352 800.03,-702.299 802.31,-708.918"/>
</g>
<!-- nid&#45;0c -->
<g id="node23" class="node"><title>nid&#45;0c</title>
<polygon fill="none" stroke="black" points="1993.1,-775.443 1972.21,-806.497 1930.43,-806.497 1909.54,-775.443 1930.43,-744.389 1972.21,-744.389 1993.1,-775.443"/>
<text text-anchor="middle" x="1951.32" y="-779.243" font-family="Times,serif" font-size="14.00">12</text>
<text text-anchor="middle" x="1951.32" y="-764.243" font-family="Times,serif" font-size="14.00">Stereo</text>
</g>
<!-- nid&#45;14&#45;in -->
<g id="node34" class="node"><title>nid&#45;14&#45;in</title>
<polygon fill="none" stroke="green" points="2371.96,-858.443 2208.96,-858.443 2208.96,-790.443 2371.96,-790.443 2371.96,-858.443"/>
<text text-anchor="middle" x="2290.46" y="-843.243" font-family="Times,serif" font-size="14.00">20</text>
<text text-anchor="middle" x="2290.46" y="-828.243" font-family="Times,serif" font-size="14.00">[Fixed] Speaker at Int N/A</text>
<text text-anchor="middle" x="2290.46" y="-813.243" font-family="Times,serif" font-size="14.00">Stereo</text>
<text text-anchor="middle" x="2290.46" y="-798.243" font-family="Times,serif" font-size="14.00">OUT EAPD</text>
</g>
<!-- nid&#45;0c&#45;&gt;nid&#45;14&#45;in -->
<g id="edge29" class="edge"><title>nid&#45;0c&#45;&gt;nid&#45;14&#45;in</title>
<path fill="none" stroke="#333333" d="M1989.69,-780.874C2039.77,-788.153 2130.3,-801.31 2198.81,-811.267"/>
<polygon fill="#333333" stroke="#333333" points="2198.35,-814.737 2208.75,-812.712 2199.35,-807.81 2198.35,-814.737"/>
</g>
<!-- nid&#45;15&#45;in -->
<g id="node35" class="node"><title>nid&#45;15&#45;in</title>
<polygon fill="none" stroke="green" points="2368.96,-766.443 2211.96,-766.443 2211.96,-698.443 2368.96,-698.443 2368.96,-766.443"/>
<text text-anchor="middle" x="2290.46" y="-751.243" font-family="Times,serif" font-size="14.00">21</text>
<text text-anchor="middle" x="2290.46" y="-736.243" font-family="Times,serif" font-size="14.00">[Jack] HP Out at Ext Left</text>
<text text-anchor="middle" x="2290.46" y="-721.243" font-family="Times,serif" font-size="14.00">Stereo</text>
<text text-anchor="middle" x="2290.46" y="-706.243" font-family="Times,serif" font-size="14.00">OUT HP EAPD Detect</text>
</g>
<!-- nid&#45;0c&#45;&gt;nid&#45;15&#45;in -->
<g id="edge31" class="edge"><title>nid&#45;0c&#45;&gt;nid&#45;15&#45;in</title>
<path fill="none" stroke="gray" stroke-dasharray="5,2" d="M1990.01,-770.635C2040.95,-764.139 2133.27,-752.364 2201.99,-743.599"/>
<polygon fill="gray" stroke="gray" points="2202.48,-747.066 2211.95,-742.329 2201.59,-740.122 2202.48,-747.066"/>
</g>
<!-- nid&#45;16&#45;in -->
<g id="node36" class="node"><title>nid&#45;16&#45;in</title>
<polygon fill="none" stroke="green" points="2370.96,-674.443 2209.96,-674.443 2209.96,-606.443 2370.96,-606.443 2370.96,-674.443"/>
<text text-anchor="middle" x="2290.46" y="-659.243" font-family="Times,serif" font-size="14.00">22</text>
<text text-anchor="middle" x="2290.46" y="-644.243" font-family="Times,serif" font-size="14.00">[N/A] Speaker at Ext Rear</text>
<text text-anchor="middle" x="2290.46" y="-629.243" font-family="Times,serif" font-size="14.00">Stereo</text>
<text text-anchor="middle" x="2290.46" y="-614.243" font-family="Times,serif" font-size="14.00">OUT HP EAPD Detect</text>
</g>
<!-- nid&#45;0c&#45;&gt;nid&#45;16&#45;in -->
<g id="edge33" class="edge"><title>nid&#45;0c&#45;&gt;nid&#45;16&#45;in</title>
<path fill="none" stroke="gray" stroke-dasharray="5,2" d="M1984.65,-762.499C2033.86,-742.793 2129.34,-704.559 2200.39,-676.11"/>
<polygon fill="gray" stroke="gray" points="2201.82,-679.306 2209.8,-672.34 2199.22,-672.808 2201.82,-679.306"/>
</g>
<!-- nid&#45;18&#45;in -->
<g id="node37" class="node"><title>nid&#45;18&#45;in</title>
<polygon fill="none" stroke="green" points="2370.96,-582.443 2209.96,-582.443 2209.96,-514.443 2370.96,-514.443 2370.96,-582.443"/>
<text text-anchor="middle" x="2290.46" y="-567.243" font-family="Times,serif" font-size="14.00">24</text>
<text text-anchor="middle" x="2290.46" y="-552.243" font-family="Times,serif" font-size="14.00">[N/A] Speaker at Ext Rear</text>
<text text-anchor="middle" x="2290.46" y="-537.243" font-family="Times,serif" font-size="14.00">Stereo</text>
<text text-anchor="middle" x="2290.46" y="-522.243" font-family="Times,serif" font-size="14.00">IN OUT Detect</text>
</g>
<!-- nid&#45;0c&#45;&gt;nid&#45;18&#45;in -->
<g id="edge37" class="edge"><title>nid&#45;0c&#45;&gt;nid&#45;18&#45;in</title>
<path fill="none" stroke="#333333" d="M1978.98,-753.969C2023.53,-718.578 2116.52,-646.715 2200.96,-594.443 2204.71,-592.124 2208.58,-589.813 2212.52,-587.529"/>
<polygon fill="#333333" stroke="#333333" points="2214.27,-590.564 2221.23,-582.583 2210.81,-584.477 2214.27,-590.564"/>
</g>
<!-- nid&#45;1b&#45;in -->
<g id="node40" class="node"><title>nid&#45;1b&#45;in</title>
<polygon fill="none" stroke="green" points="2370.96,-950.443 2209.96,-950.443 2209.96,-882.443 2370.96,-882.443 2370.96,-950.443"/>
<text text-anchor="middle" x="2290.46" y="-935.243" font-family="Times,serif" font-size="14.00">27</text>
<text text-anchor="middle" x="2290.46" y="-920.243" font-family="Times,serif" font-size="14.00">[N/A] Speaker at Ext Rear</text>
<text text-anchor="middle" x="2290.46" y="-905.243" font-family="Times,serif" font-size="14.00">Stereo</text>
<text text-anchor="middle" x="2290.46" y="-890.243" font-family="Times,serif" font-size="14.00">IN OUT Detect</text>
</g>
<!-- nid&#45;0c&#45;&gt;nid&#45;1b&#45;in -->
<g id="edge41" class="edge"><title>nid&#45;0c&#45;&gt;nid&#45;1b&#45;in</title>
<path fill="none" stroke="#333333" d="M1984.34,-788.835C2033.42,-809.361 2129.03,-849.347 2200.2,-879.114"/>
<polygon fill="#333333" stroke="#333333" points="2199.06,-882.429 2209.64,-883.059 2201.76,-875.971 2199.06,-882.429"/>
</g>
<!-- nid&#45;0c&#45;ampin&#45;2&#45;&gt;nid&#45;0c -->
<g id="edge17" class="edge"><title>nid&#45;0c&#45;ampin&#45;2&#45;&gt;nid&#45;0c</title>
<path fill="none" stroke="#0000ff" d="M1655.88,-824.294C1720.87,-813.51 1843.25,-793.207 1907.87,-782.486"/>
<polygon fill="#0000ff" stroke="#0000ff" points="1908.53,-784.15 1913.18,-781.605 1907.96,-780.697 1908.53,-784.15"/>
</g>
<!-- nid&#45;0c&#45;ampin&#45;11&#45;&gt;nid&#45;0c -->
<g id="edge18" class="edge"><title>nid&#45;0c&#45;ampin&#45;11&#45;&gt;nid&#45;0c</title>
<path fill="none" stroke="#0000ff" d="M1684.78,-769.149C1751.37,-770.727 1848.31,-773.025 1904.78,-774.364"/>
<polygon fill="#0000ff" stroke="#0000ff" points="1905.08,-776.121 1910.12,-774.49 1905.16,-772.622 1905.08,-776.121"/>
</g>
<!-- nid&#45;0d -->
<g id="node26" class="node"><title>nid&#45;0d</title>
<polygon fill="none" stroke="black" points="1993.1,-689.443 1972.21,-720.497 1930.43,-720.497 1909.54,-689.443 1930.43,-658.389 1972.21,-658.389 1993.1,-689.443"/>
<text text-anchor="middle" x="1951.32" y="-693.243" font-family="Times,serif" font-size="14.00">13</text>
<text text-anchor="middle" x="1951.32" y="-678.243" font-family="Times,serif" font-size="14.00">Stereo</text>
</g>
<!-- nid&#45;0d&#45;&gt;nid&#45;14&#45;in -->
<g id="edge30" class="edge"><title>nid&#45;0d&#45;&gt;nid&#45;14&#45;in</title>
<path fill="none" stroke="gray" stroke-dasharray="5,2" d="M1984.65,-702.387C2033.62,-721.998 2128.42,-759.96 2199.36,-788.365"/>
<polygon fill="gray" stroke="gray" points="2198.18,-791.662 2208.77,-792.131 2200.78,-785.164 2198.18,-791.662"/>
</g>
<!-- nid&#45;0d&#45;&gt;nid&#45;15&#45;in -->
<g id="edge32" class="edge"><title>nid&#45;0d&#45;&gt;nid&#45;15&#45;in</title>
<path fill="none" stroke="#333333" d="M1990.01,-694.25C2040.95,-700.747 2133.27,-712.522 2201.99,-721.287"/>
<polygon fill="#333333" stroke="#333333" points="2201.59,-724.764 2211.95,-722.557 2202.48,-717.82 2201.59,-724.764"/>
</g>
<!-- nid&#45;0d&#45;&gt;nid&#45;16&#45;in -->
<g id="edge34" class="edge"><title>nid&#45;0d&#45;&gt;nid&#45;16&#45;in</title>
<path fill="none" stroke="#333333" d="M1989.69,-684.012C2040.02,-676.697 2131.18,-663.447 2199.81,-653.473"/>
<polygon fill="#333333" stroke="#333333" points="2200.37,-656.928 2209.76,-652.026 2199.36,-650.001 2200.37,-656.928"/>
</g>
<!-- nid&#45;0d&#45;&gt;nid&#45;18&#45;in -->
<g id="edge38" class="edge"><title>nid&#45;0d&#45;&gt;nid&#45;18&#45;in</title>
<path fill="none" stroke="gray" stroke-dasharray="5,2" d="M1984.34,-676.051C2033.42,-655.525 2129.03,-615.539 2200.2,-585.772"/>
<polygon fill="gray" stroke="gray" points="2201.76,-588.915 2209.64,-581.827 2199.06,-582.457 2201.76,-588.915"/>
</g>
<!-- nid&#45;0d&#45;&gt;nid&#45;1b&#45;in -->
<g id="edge42" class="edge"><title>nid&#45;0d&#45;&gt;nid&#45;1b&#45;in</title>
<path fill="none" stroke="gray" stroke-dasharray="5,2" d="M1978.98,-710.916C2023.53,-746.308 2116.52,-818.171 2200.96,-870.443 2204.71,-872.761 2208.58,-875.073 2212.52,-877.357"/>
<polygon fill="gray" stroke="gray" points="2210.81,-880.409 2221.23,-882.303 2214.27,-874.322 2210.81,-880.409"/>
</g>
<!-- nid&#45;0d&#45;ampin&#45;3&#45;&gt;nid&#45;0d -->
<g id="edge21" class="edge"><title>nid&#45;0d&#45;ampin&#45;3&#45;&gt;nid&#45;0d</title>
<path fill="none" stroke="#0000ff" d="M1684.78,-695.737C1751.37,-694.158 1848.31,-691.861 1904.78,-690.522"/>
<polygon fill="#0000ff" stroke="#0000ff" points="1905.16,-692.264 1910.12,-690.396 1905.08,-688.765 1905.16,-692.264"/>
</g>
<!-- nid&#45;0d&#45;ampin&#45;11&#45;&gt;nid&#45;0d -->
<g id="edge22" class="edge"><title>nid&#45;0d&#45;ampin&#45;11&#45;&gt;nid&#45;0d</title>
<path fill="none" stroke="#0000ff" d="M1655.88,-640.592C1720.87,-651.376 1843.25,-671.679 1907.87,-682.399"/>
<polygon fill="#0000ff" stroke="#0000ff" points="1907.96,-684.188 1913.18,-683.281 1908.53,-680.736 1907.96,-684.188"/>
</g>
<!-- nid&#45;0f -->
<g id="node29" class="node"><title>nid&#45;0f</title>
<polygon fill="none" stroke="black" points="1991.97,-944.443 1971.65,-975.497 1930.99,-975.497 1910.67,-944.443 1930.99,-913.389 1971.65,-913.389 1991.97,-944.443"/>
<text text-anchor="middle" x="1951.32" y="-948.243" font-family="Times,serif" font-size="14.00">15</text>
<text text-anchor="middle" x="1951.32" y="-933.243" font-family="Times,serif" font-size="14.00">Mono</text>
</g>
<!-- nid&#45;0f&#45;ampin&#45;2&#45;&gt;nid&#45;0f -->
<g id="edge25" class="edge"><title>nid&#45;0f&#45;ampin&#45;2&#45;&gt;nid&#45;0f</title>
<path fill="none" stroke="#c8c8c8" d="M1666.64,-971.337C1733.62,-964.987 1846.6,-954.276 1907.82,-948.473"/>
<polygon fill="#c8c8c8" stroke="#c8c8c8" points="1908.04,-950.209 1912.85,-947.995 1907.71,-946.725 1908.04,-950.209"/>
</g>
<!-- nid&#45;0f&#45;ampin&#45;3&#45;&gt;nid&#45;0f -->
<g id="edge26" class="edge"><title>nid&#45;0f&#45;ampin&#45;3&#45;&gt;nid&#45;0f</title>
<path fill="none" stroke="#0000ff" d="M1666.64,-917.549C1733.62,-923.899 1846.6,-934.61 1907.82,-940.413"/>
<polygon fill="#0000ff" stroke="#0000ff" points="1907.71,-942.161 1912.85,-940.891 1908.04,-938.677 1907.71,-942.161"/>
</g>
<!-- nid&#45;12&#45;out -->
<g id="node32" class="node"><title>nid&#45;12&#45;out</title>
<polygon fill="none" stroke="green" points="1302.89,-115.443 1160.89,-115.443 1160.89,-47.4429 1302.89,-47.4429 1302.89,-115.443"/>
<text text-anchor="middle" x="1231.89" y="-100.243" font-family="Times,serif" font-size="14.00">18</text>
<text text-anchor="middle" x="1231.89" y="-85.2429" font-family="Times,serif" font-size="14.00">[Fixed] Mic at Int N/A</text>
<text text-anchor="middle" x="1231.89" y="-70.2429" font-family="Times,serif" font-size="14.00">Stereo</text>
<text text-anchor="middle" x="1231.89" y="-55.2429" font-family="Times,serif" font-size="14.00">IN</text>
</g>
<!-- nid&#45;12&#45;out&#45;&gt;nid&#45;22 -->
<g id="edge50" class="edge"><title>nid&#45;12&#45;out&#45;&gt;nid&#45;22</title>
<path fill="none" stroke="#333333" d="M1296.65,-115.664C1305.15,-120.274 1313.74,-124.959 1321.89,-129.443 1402.24,-173.634 1494.59,-225.631 1552.81,-258.562"/>
<polygon fill="#333333" stroke="#333333" points="1551.42,-261.801 1561.85,-263.679 1554.87,-255.708 1551.42,-261.801"/>
</g>
<!-- nid&#45;13&#45;out -->
<g id="node33" class="node"><title>nid&#45;13&#45;out</title>
<polygon fill="none" stroke="green" points="1313.89,-239.443 1149.89,-239.443 1149.89,-171.443 1313.89,-171.443 1313.89,-239.443"/>
<text text-anchor="middle" x="1231.89" y="-224.243" font-family="Times,serif" font-size="14.00">19</text>
<text text-anchor="middle" x="1231.89" y="-209.243" font-family="Times,serif" font-size="14.00">[N/A] Line Out at Ext N/A</text>
<text text-anchor="middle" x="1231.89" y="-194.243" font-family="Times,serif" font-size="14.00">Stereo</text>
<text text-anchor="middle" x="1231.89" y="-179.243" font-family="Times,serif" font-size="14.00">IN</text>
</g>
<!-- nid&#45;13&#45;out&#45;&gt;nid&#45;22 -->
<g id="edge51" class="edge"><title>nid&#45;13&#45;out&#45;&gt;nid&#45;22</title>
<path fill="none" stroke="gray" stroke-dasharray="5,2" d="M1313.96,-223.892C1387.45,-240.617 1493.69,-264.794 1557.13,-279.232"/>
<polygon fill="gray" stroke="gray" points="1556.41,-282.657 1566.93,-281.463 1557.96,-275.831 1556.41,-282.657"/>
</g>
<!-- nid&#45;18&#45;ampout -->
<g id="node38" class="node"><title>nid&#45;18&#45;ampout</title>
<polygon fill="none" stroke="#c8c8c8" points="2641.96,-548.443 2601.46,-566.443 2601.46,-530.443 2641.96,-548.443"/>
</g>
<!-- nid&#45;18&#45;in&#45;&gt;nid&#45;18&#45;ampout -->
<g id="edge35" class="edge"><title>nid&#45;18&#45;in&#45;&gt;nid&#45;18&#45;ampout</title>
<path fill="none" stroke="#c8c8c8" d="M2371.18,-548.443C2446.67,-548.443 2554.5,-548.443 2596.39,-548.443"/>
<polygon fill="#c8c8c8" stroke="#c8c8c8" points="2596.39,-550.193 2601.39,-548.443 2596.39,-546.693 2596.39,-550.193"/>
</g>
<!-- nid&#45;18&#45;ampin -->
<g id="node39" class="node"><title>nid&#45;18&#45;ampin</title>
<polygon fill="none" stroke="#0000ff" points="108.054,-731.443 67.5538,-749.443 67.5538,-713.443 108.054,-731.443"/>
</g>
<!-- nid&#45;18&#45;ampin&#45;&gt;nid&#45;18&#45;out -->
<g id="edge36" class="edge"><title>nid&#45;18&#45;ampin&#45;&gt;nid&#45;18&#45;out</title>
<path fill="none" stroke="#0000ff" d="M108.129,-731.443C161.96,-731.443 287.439,-731.443 372.312,-731.443"/>
<polygon fill="#0000ff" stroke="#0000ff" points="372.335,-733.193 377.335,-731.443 372.335,-729.693 372.335,-733.193"/>
</g>
<!-- nid&#45;1b&#45;ampout -->
<g id="node41" class="node"><title>nid&#45;1b&#45;ampout</title>
<polygon fill="none" stroke="#c8c8c8" points="2641.96,-916.443 2601.46,-934.443 2601.46,-898.443 2641.96,-916.443"/>
</g>
<!-- nid&#45;1b&#45;in&#45;&gt;nid&#45;1b&#45;ampout -->
<g id="edge39" class="edge"><title>nid&#45;1b&#45;in&#45;&gt;nid&#45;1b&#45;ampout</title>
<path fill="none" stroke="#c8c8c8" d="M2371.18,-916.443C2446.67,-916.443 2554.5,-916.443 2596.39,-916.443"/>
<polygon fill="#c8c8c8" stroke="#c8c8c8" points="2596.39,-918.193 2601.39,-916.443 2596.39,-914.693 2596.39,-918.193"/>
</g>
<!-- nid&#45;1b&#45;ampin -->
<g id="node42" class="node"><title>nid&#45;1b&#45;ampin</title>
<polygon fill="none" stroke="#0000ff" points="108.054,-305.443 67.5538,-323.443 67.5538,-287.443 108.054,-305.443"/>
</g>
<!-- nid&#45;1b&#45;ampin&#45;&gt;nid&#45;1b&#45;out -->
<g id="edge40" class="edge"><title>nid&#45;1b&#45;ampin&#45;&gt;nid&#45;1b&#45;out</title>
<path fill="none" stroke="#0000ff" d="M108.129,-305.443C161.96,-305.443 287.439,-305.443 372.312,-305.443"/>
<polygon fill="#0000ff" stroke="#0000ff" points="372.335,-307.193 377.335,-305.443 372.335,-303.693 372.335,-307.193"/>
</g>
</g>
</svg>
